<svg xmlns="http://www.w3.org/2000/svg"  viewBox="0 0 50 50" width="150px" height="150px"><path d="M 40 0 C 34.486 0 30 4.486 30 10 C 30 12.022 30.599281 13.953141 31.738281 15.619141 L 30.050781 20.683594 C 29.916781 21.083594 30.048859 21.524156 30.380859 21.785156 C 30.561859 21.928156 30.78 22 31 22 C 31.184 22 31.366297 21.949656 31.529297 21.847656 L 35.898438 19.117188 C 37.192437 19.703188 38.57 20 40 20 C 45.514 20 50 15.514 50 10 C 50 4.486 45.514 0 40 0 z M 39.199219 5 L 40.800781 5 C 40.900781 5 41 5.0992187 41 5.1992188 L 41 10.800781 C 41 10.900781 40.900781 11 40.800781 11 L 39.199219 11 C 39.099219 11 39 10.900781 39 10.800781 L 39 5.1992188 C 39 5.0992187 39.099219 5 39.199219 5 z M 18.394531 6.9863281 C 14.979531 7.0483281 12.482703 8.0928906 10.970703 10.087891 C 9.1997031 12.425891 8.8665156 15.948406 9.9785156 20.566406 C 9.5665156 21.085406 9.2666719 21.871625 9.3886719 22.890625 C 9.6316719 24.890625 10.428937 25.733891 11.085938 26.087891 C 11.382938 27.610891 12.150234 29.434172 12.990234 30.326172 C 12.991234 30.795172 12.993094 31.227922 12.996094 31.669922 C 13.000094 32.227922 13.004859 32.800422 13.005859 33.482422 C 12.425859 34.701422 10.514141 35.440656 8.4941406 36.222656 C 4.8901406 37.617656 0.40635938 39.354406 0.068359375 44.941406 L 0.00390625 46.001953 L 36.992188 46.001953 L 36.929688 44.941406 C 36.592688 39.354406 32.107906 37.595641 28.503906 36.181641 C 26.486906 35.390641 24.575187 34.639875 23.992188 33.421875 C 24.005188 32.191875 24.007812 31.324672 24.007812 30.263672 C 24.846813 29.379672 25.613156 27.585891 25.910156 26.087891 C 26.568156 25.734891 27.365422 24.892578 27.607422 22.892578 C 27.729422 21.893578 27.444922 21.119609 27.044922 20.599609 C 27.584922 18.753609 28.653203 14.098937 26.783203 11.085938 C 25.986203 9.8019375 24.781312 8.9918281 23.195312 8.6738281 C 22.307312 7.5808281 20.633531 6.9863281 18.394531 6.9863281 z M 39.199219 13 L 40.800781 13 C 40.900781 13 41 13.099219 41 13.199219 L 41 14.800781 C 41 14.900781 40.900781 15 40.800781 15 L 39.199219 15 C 39.099219 15 39 14.900781 39 14.800781 L 39 13.199219 C 39 13.099219 39.099219 13 39.199219 13 z"/></svg>